<?xml version="1.0" standalone="no"?>
<!DOCTYPE svg PUBLIC "-//W3C//DTD SVG 20010904//EN"
 "http://www.w3.org/TR/2001/REC-SVG-20010904/DTD/svg10.dtd">
<svg version="1.0" xmlns="http://www.w3.org/2000/svg"
 width="512.000000pt" height="512.000000pt" viewBox="0 0 512.000000 512.000000"
 preserveAspectRatio="xMidYMid meet">
<metadata>
Created by potrace 1.11, written by Peter Selinger 2001-2013
</metadata>
<g transform="translate(0.000000,512.000000) scale(0.100000,-0.100000)"
fill="#000000" stroke="none">
<path d="M2340 5069 c-407 -50 -823 -226 -1120 -475 -248 -207 -433 -451 -604
-795 -154 -308 -243 -595 -292 -934 -21 -145 -24 -500 -5 -650 36 -300 130
-626 246 -854 l25 -50 192 93 c638 307 660 319 653 340 -30 104 -87 343 -104
436 -92 512 -85 1174 19 1573 75 291 204 538 362 695 89 88 151 130 284 194
156 74 268 100 439 101 379 0 680 -159 932 -496 240 -321 397 -715 479 -1196
13 -79 25 -146 27 -147 1 -1 205 96 452 216 279 135 451 224 453 234 5 24 -73
245 -132 377 -146 322 -394 652 -651 867 -292 244 -626 394 -1020 458 -118 19
-521 27 -635 13z"/>
<path d="M4360 2009 c-250 -77 -456 -142 -458 -144 -2 -2 -10 -61 -18 -132
-41 -353 -124 -622 -251 -811 -151 -225 -351 -377 -588 -448 -121 -35 -354
-45 -488 -20 -327 62 -602 269 -821 619 -30 48 -56 93 -58 99 -4 11 -838 -240
-838 -252 0 -3 30 -44 67 -90 83 -104 267 -289 348 -351 286 -219 615 -352
990 -399 119 -16 456 -16 575 0 389 49 721 179 1041 406 115 81 339 306 436
437 213 288 418 753 502 1140 10 48 18 87 18 87 -1 -1 -207 -64 -457 -141z"/>
</g>
</svg>
